<?xml version="1.0" encoding="UTF-8" standalone="no"?>
<svg
   xmlns:dc="http://purl.org/dc/elements/1.1/"
   xmlns:cc="http://creativecommons.org/ns#"
   xmlns:rdf="http://www.w3.org/1999/02/22-rdf-syntax-ns#"
   xmlns:svg="http://www.w3.org/2000/svg"
   xmlns="http://www.w3.org/2000/svg"
   xmlns:xlink="http://www.w3.org/1999/xlink"
   xmlns:sodipodi="http://sodipodi.sourceforge.net/DTD/sodipodi-0.dtd"
   xmlns:inkscape="http://www.inkscape.org/namespaces/inkscape"
   data-v-fde0c5aa=""
   viewBox="0 0 201.60028 51.010437"
   class="iconLeft"
   version="1.1"
   id="svg21"
   sodipodi:docname="default.svg"
   inkscape:version="0.92.5 (2060ec1f9f, 2020-04-08)"
   width="201.60028"
   height="51.010437">
  <metadata
     id="metadata25">
    <rdf:RDF>
      <cc:Work
         rdf:about="">
        <dc:format>image/svg+xml</dc:format>
        <dc:type
           rdf:resource="http://purl.org/dc/dcmitype/StillImage" />
        <dc:title></dc:title>
      </cc:Work>
    </rdf:RDF>
  </metadata>
  <sodipodi:namedview
     pagecolor="#ffffff"
     bordercolor="#666666"
     borderopacity="1"
     objecttolerance="10"
     gridtolerance="10"
     guidetolerance="10"
     inkscape:pageopacity="0"
     inkscape:pageshadow="2"
     inkscape:window-width="1851"
     inkscape:window-height="1053"
     id="namedview23"
     showgrid="false"
     inkscape:zoom="0.78666667"
     inkscape:cx="86.515528"
     inkscape:cy="27.31961"
     inkscape:window-x="69"
     inkscape:window-y="27"
     inkscape:window-maximized="1"
     inkscape:current-layer="svg21"
     fit-margin-top="0"
     fit-margin-left="0"
     fit-margin-right="0"
     fit-margin-bottom="0" />
  <!---->
  <defs
     data-v-fde0c5aa=""
     id="defs2">
    <!---->
    <linearGradient
       inkscape:collect="always"
       xlink:href="#35e4068c-01bb-459d-a0a1-b2383629c573"
       id="linearGradient27"
       gradientTransform="scale(1.2638114,0.79125728)"
       x1="0.078334473"
       y1="23.577665"
       x2="79.161339"
       y2="23.577665"
       gradientUnits="userSpaceOnUse" />
    <linearGradient
       inkscape:collect="always"
       xlink:href="#35e4068c-01bb-459d-a0a1-b2383629c573"
       id="linearGradient29"
       gradientTransform="scale(1.2638114,0.79125728)"
       x1="0.078334473"
       y1="23.577665"
       x2="79.161339"
       y2="23.577665"
       gradientUnits="userSpaceOnUse" />
  </defs>
  <defs
     data-v-fde0c5aa=""
     id="defs6">
    <!---->
  </defs>
  <g
     data-v-fde0c5aa=""
     id="0f5fa820-e6c6-48dc-88ac-96aa49a1a116"
     transform="matrix(2.7971578,0,0,2.7971578,79.588253,4.3064904)"
     style="fill:#000000">
    <path
       d="M 2.66,10.5 V 6.54 c 0,-1.3 0.66,-1.98 1.51,-1.98 0.9,0 1.23,0.56 1.23,1.53 V 10.5 H 7.25 V 6.03 C 7.25,4.3 6.66,3.01 4.65,3.01 3.74,3.01 3.07,3.37 2.53,4.27 V 3.22 H 0.81 v 7.28 z m 6.36,2.76 c 0.26,0.08 0.56,0.18 0.99,0.18 1.29,0 2.04,-0.87 2.62,-2.42 l 2.88,-7.8 H 13.69 L 11.9,8.29 10.09,3.22 H 8.2 l 2.83,7.21 -0.14,0.41 C 10.6,11.56 10.23,11.8 9.69,11.8 9.28,11.8 9.11,11.72 8.88,11.62 Z M 18.31,10.5 V 6.73 c 0,-1.23 0.39,-2.17 1.4,-2.17 0.6,0 1,0.42 1,1.42 v 4.52 h 1.84 V 6.38 c 0,-1.09 0.51,-1.82 1.39,-1.82 0.78,0 0.99,0.65 0.99,1.46 v 4.48 h 1.85 V 5.52 c 0,-1.63 -0.88,-2.51 -2.28,-2.51 -0.91,0 -1.68,0.38 -2.14,1.34 -0.3,-0.85 -1.01,-1.34 -2.07,-1.34 -0.97,0 -1.6,0.35 -2.1,1.25 V 3.22 H 16.46 V 10.5 Z M 30.25,2.18 V 0.42 h -1.84 v 1.76 z m 0,8.32 V 3.22 h -1.84 v 7.28 z m 5.21,-1.55 c -0.22,0.07 -0.43,0.08 -0.57,0.08 -0.66,0 -0.66,-0.45 -0.66,-1.08 V 4.68 h 1.34 V 3.22 H 34.23 V 0.99 L 32.38,1.6 v 1.62 h -1.03 v 1.46 h 1.03 v 3.69 c 0,1.43 0.48,2.27 2,2.27 0.27,0 0.93,-0.07 1.21,-0.21 z m 1.67,4.31 c 0.26,0.08 0.56,0.18 0.99,0.18 1.29,0 2.05,-0.87 2.62,-2.42 l 2.88,-7.8 H 41.8 l -1.79,5.07 -1.8,-5.07 h -1.89 l 2.82,7.21 -0.14,0.41 c -0.29,0.72 -0.65,0.96 -1.2,0.96 -0.41,0 -0.57,-0.08 -0.81,-0.18 z"
       id="path8"
       inkscape:connector-curvature="0" />
  </g>
  <defs
     data-v-fde0c5aa=""
     id="defs16">
    <linearGradient
       data-v-fde0c5aa=""
       gradientTransform="rotate(25)"
       id="35e4068c-01bb-459d-a0a1-b2383629c573"
       x1="0"
       y1="0"
       x2="1"
       y2="0">
      <stop
         data-v-fde0c5aa=""
         offset="0%"
         stop-color="#288B58"
         stop-opacity="1"
         id="stop11" />
      <stop
         data-v-fde0c5aa=""
         offset="100%"
         stop-color="#1522F1"
         stop-opacity="1"
         id="stop13" />
    </linearGradient>
  </defs>
  <g
     data-v-fde0c5aa=""
     id="5da5d5a1-c9a7-4436-9786-e4aedc085c80"
     transform="matrix(0.68779623,-0.12127703,0.12127703,0.68779623,-5.3352885,-4.2246906)"
     style="fill:url(#linearGradient29);stroke:none">
    <path
       d="m 100.045,45.407 c 0,-7.259 -3.468,-14.047 -9.766,-19.112 -6.124,-4.926 -14.232,-7.639 -22.83,-7.639 -6.241,0 -12.223,1.431 -17.377,4.099 -5.154,-2.668 -11.136,-4.099 -17.377,-4.099 -8.598,0 -16.706,2.713 -22.83,7.639 -6.297,5.066 -9.766,11.853 -9.766,19.112 0,6.433 2.761,12.556 7.809,17.393 L 5.238,81.231 20.971,70.382 c 3.73,1.18 7.667,1.777 11.725,1.777 6.135,0 12.232,-1.374 17.377,-3.85 5.145,2.476 11.242,3.85 17.377,3.85 4.058,0 7.995,-0.597 11.725,-1.777 L 94.908,81.231 92.236,62.8 c 5.048,-4.836 7.809,-10.96 7.809,-17.393 z m -78.576,19.385 -1.318,-0.473 -7.72,5.323 1.301,-8.97 -1.13,-0.977 C 8.059,55.767 5.557,50.693 5.557,45.407 c 0,-11.742 12.175,-21.295 27.139,-21.295 4.28,0 8.331,0.783 11.936,2.174 l -0.012,0.009 c -6.298,5.066 -9.766,11.853 -9.766,19.112 0,7.85 3.282,14.521 9.513,19.386 -3.665,1.267 -7.675,1.91 -11.671,1.91 -3.919,0 -7.696,-0.643 -11.227,-1.911 z m 35.154,-8.767 h -13.1 c -0.25,-0.365 -0.487,-0.74 -0.711,-1.123 h 14.522 c -0.224,0.383 -0.461,0.758 -0.711,1.123 z m -5.569,5.457 c -0.321,0.219 -0.648,0.43 -0.981,0.636 -0.333,-0.205 -0.66,-0.417 -0.981,-0.636 z M 59.428,49.445 H 40.718 A 18.287,18.287 0 0 1 40.52,48.321 h 19.106 a 19.94,19.94 0 0 1 -0.198,1.124 z m -18.923,-6.58 c 0.057,-0.378 0.127,-0.752 0.209,-1.123 h 18.717 c 0.082,0.371 0.152,0.746 0.21,1.123 z m 2.425,-6.58 c 0.231,-0.381 0.476,-0.755 0.735,-1.123 h 12.816 c 0.259,0.368 0.504,0.743 0.735,1.123 z m 6.207,-6.58 c 0.305,-0.22 0.618,-0.433 0.936,-0.642 0.318,0.209 0.63,0.422 0.936,0.642 z m 38.577,39.937 -7.72,-5.323 -1.318,0.473 c -3.53,1.268 -7.308,1.91 -11.227,1.91 -3.996,0 -8.006,-0.642 -11.671,-1.91 6.231,-4.865 9.513,-11.536 9.513,-19.386 0,-7.259 -3.468,-14.047 -9.766,-19.112 l -0.012,-0.009 c 3.604,-1.391 7.655,-2.174 11.936,-2.174 14.964,0 27.139,9.553 27.139,21.295 0,5.286 -2.502,10.36 -7.045,14.288 l -1.13,0.977 z"
       id="path18"
       style="fill:url(#linearGradient27)"
       inkscape:connector-curvature="0" />
  </g>
  <!---->
</svg>
