<?xml version="1.0" standalone="no"?>
<!DOCTYPE svg PUBLIC "-//W3C//DTD SVG 20010904//EN"
 "http://www.w3.org/TR/2001/REC-SVG-20010904/DTD/svg10.dtd">
<svg version="1.0" xmlns="http://www.w3.org/2000/svg"
 width="1080.000000pt" height="305.000000pt" viewBox="0 0 1080.000000 305.000000"
 preserveAspectRatio="xMidYMid meet">

<g transform="translate(0.000000,305.000000) scale(0.100000,-0.100000)"
fill="#000000" stroke="none">
<path d="M2625 2108 c-9 -28 -355 -1696 -355 -1714 0 -12 39 -14 240 -14 l240
0 19 42 c11 24 53 205 95 403 l76 360 37 33 c45 39 73 52 114 52 74 0 94 -45
73 -166 -8 -43 -45 -223 -83 -399 -37 -176 -66 -323 -64 -328 2 -4 120 -7 263
-7 l258 0 5 22 c13 51 156 728 167 786 8 44 8 79 0 119 -5 31 -10 58 -10 60 0
2 -19 24 -42 49 -53 57 -98 81 -187 96 -150 26 -321 -32 -453 -152 -18 -16
-35 -26 -39 -22 -4 4 30 181 75 395 46 213 80 389 78 392 -3 3 -117 5 -254 5
-190 0 -250 -3 -253 -12z"/>
<path d="M8923 1728 c-46 -216 -87 -396 -92 -401 -5 -5 -17 8 -29 34 -26 57
-86 114 -142 134 -61 22 -173 30 -244 16 -56 -10 -152 -49 -183 -74 -36 -29
-133 -127 -133 -135 0 -5 -9 -19 -19 -31 -46 -53 -112 -254 -131 -401 -43
-335 53 -502 299 -517 153 -9 278 34 382 134 65 62 64 63 94 -42 l20 -70 204
-3 c113 -1 208 1 213 6 4 4 89 388 188 852 99 465 182 855 185 868 l5 22 -267
0 -268 0 -82 -392z m-152 -509 c36 -36 37 -39 27 -81 -5 -23 -29 -134 -53
-245 -43 -199 -44 -202 -82 -237 -51 -48 -115 -73 -148 -58 -36 16 -47 55 -47
149 2 169 78 424 145 485 51 47 102 43 158 -13z"/>
<path d="M4752 1500 c-95 -25 -172 -79 -238 -165 -14 -19 -32 -35 -38 -35 -8
0 -19 38 -30 95 l-18 95 -214 0 c-118 0 -214 -2 -214 -6 0 -3 -52 -249 -115
-548 -63 -298 -115 -548 -115 -554 0 -15 516 -17 525 -3 3 5 41 180 86 388 76
357 82 379 110 405 34 33 67 42 112 34 26 -5 35 -14 49 -49 10 -23 20 -67 23
-97 3 -30 8 -74 11 -97 l5 -43 140 0 c76 0 139 2 139 5 0 2 25 118 55 257 30
139 55 260 55 269 0 10 -20 25 -52 39 -74 32 -181 36 -276 10z"/>
<path d="M5695 1504 c-97 -15 -184 -40 -255 -74 -74 -35 -90 -44 -90 -52 0 -5
-6 -8 -13 -8 -13 0 -84 -65 -131 -121 -37 -44 -81 -138 -103 -219 -12 -46 -17
-102 -17 -190 0 -107 4 -134 23 -185 30 -75 52 -108 109 -163 105 -100 238
-137 497 -137 186 0 292 16 427 62 114 39 120 46 157 195 17 70 31 130 31 133
0 3 -94 5 -209 5 l-210 0 -31 -57 c-57 -107 -130 -167 -196 -161 -31 2 -42 9
-59 38 -17 31 -20 51 -19 161 1 74 6 134 13 147 l12 22 359 0 c305 0 361 2
374 15 44 45 84 241 66 334 -22 116 -103 197 -237 236 -125 36 -336 44 -498
19z m257 -215 c21 -39 22 -93 5 -199 l-12 -75 -147 -3 c-125 -2 -148 0 -148
12 0 46 99 256 135 286 8 7 32 18 52 25 51 17 92 1 115 -46z"/>
<path d="M7060 1510 c-161 -23 -351 -81 -382 -118 -8 -9 -23 -55 -32 -102 -10
-47 -20 -95 -23 -107 l-5 -23 186 0 187 0 15 38 c43 109 68 133 150 147 63 10
120 -9 141 -48 20 -36 23 -162 5 -208 -11 -26 -11 -27 -159 -33 -351 -16 -515
-64 -619 -179 -58 -65 -78 -131 -72 -242 5 -95 31 -150 97 -207 110 -94 306
-101 472 -17 67 34 65 32 129 89 25 22 48 40 52 40 4 0 17 -33 28 -72 12 -40
23 -79 25 -85 5 -15 410 -19 419 -4 13 21 128 574 138 669 24 205 -22 325
-152 396 -88 48 -188 67 -370 71 -91 2 -194 0 -230 -5z m202 -576 c11 -10 -42
-227 -64 -262 -29 -46 -114 -87 -165 -77 -82 15 -115 100 -76 197 29 73 91
119 186 137 51 11 112 13 119 5z"/>
<path d="M9985 1509 c-126 -17 -258 -60 -313 -102 -8 -7 -39 -36 -68 -65 -101
-101 -122 -270 -48 -386 44 -70 101 -104 246 -150 73 -24 149 -51 168 -61 75
-38 95 -87 61 -152 -33 -66 -114 -91 -186 -58 -40 20 -55 51 -55 116 l0 49
-177 -2 -178 -3 -26 -128 -27 -128 27 -11 c211 -82 625 -103 859 -42 115 30
206 86 270 168 27 34 44 103 46 181 0 65 -4 89 -22 127 -48 97 -145 156 -337
202 -162 40 -205 70 -205 146 0 39 29 98 52 106 10 3 18 9 18 14 0 11 67 22
91 15 30 -10 51 -62 52 -127 l0 -58 164 0 c190 0 166 -18 203 154 22 103 23
109 6 121 -20 15 -152 52 -234 66 -87 14 -309 19 -387 8z"/>
</g>
<g transform="translate(0.000000,305.000000) scale(0.100000,-0.100000)"
fill="#890309" stroke="none">
<path d="M205 2818 c-3 -7 -4 -589 -3 -1293 l3 -1280 1290 0 1290 0 0 30 0 30
-314 3 -313 2 4 23 c3 12 92 430 199 929 l194 907 115 3 115 3 0 325 0 325
-1288 3 c-1025 2 -1289 0 -1292 -10z m2405 -184 c0 -7 -49 -223 -56 -246 -5
-16 -30 -18 -292 -20 l-287 -3 -47 -220 c-42 -196 -143 -672 -313 -1475 -31
-146 -58 -273 -61 -282 -5 -17 -32 -18 -386 -18 l-380 0 5 28 c6 31 266 1254
356 1677 33 153 57 283 55 287 -3 4 -130 8 -284 8 l-278 0 25 98 c13 53 29
114 34 135 l10 37 949 0 c523 0 950 -3 950 -6z"/>
</g>
</svg>
