<?xml version="1.0" encoding="UTF-8" standalone="no"?>
<svg
   xmlns:dc="http://purl.org/dc/elements/1.1/"
   xmlns:cc="http://creativecommons.org/ns#"
   xmlns:rdf="http://www.w3.org/1999/02/22-rdf-syntax-ns#"
   xmlns:svg="http://www.w3.org/2000/svg"
   xmlns="http://www.w3.org/2000/svg"
   xmlns:xlink="http://www.w3.org/1999/xlink"
   xmlns:sodipodi="http://sodipodi.sourceforge.net/DTD/sodipodi-0.dtd"
   xmlns:inkscape="http://www.inkscape.org/namespaces/inkscape"
   data-v-fde0c5aa=""
   viewBox="0 0 213.92857 57.500004"
   class="iconLeft"
   version="1.1"
   id="svg21"
   sodipodi:docname="default.svg"
   inkscape:version="0.92.5 (2060ec1f9f, 2020-04-08)"
   width="213.92857"
   height="57.500004">
  <metadata
     id="metadata25">
    <rdf:RDF>
      <cc:Work
         rdf:about="">
        <dc:format>image/svg+xml</dc:format>
        <dc:type
           rdf:resource="http://purl.org/dc/dcmitype/StillImage" />
        <dc:title></dc:title>
      </cc:Work>
    </rdf:RDF>
  </metadata>
  <sodipodi:namedview
     pagecolor="#ffffff"
     bordercolor="#666666"
     borderopacity="1"
     objecttolerance="10"
     gridtolerance="10"
     guidetolerance="10"
     inkscape:pageopacity="0"
     inkscape:pageshadow="2"
     inkscape:window-width="1851"
     inkscape:window-height="1053"
     id="namedview23"
     showgrid="false"
     inkscape:zoom="0.78666667"
     inkscape:cx="19.679178"
     inkscape:cy="-227.9552"
     inkscape:window-x="69"
     inkscape:window-y="27"
     inkscape:window-maximized="1"
     inkscape:current-layer="svg21"
     fit-margin-top="0"
     fit-margin-left="0"
     fit-margin-right="0"
     fit-margin-bottom="0" />
  <!---->
  <defs
     data-v-fde0c5aa=""
     id="defs2">
    <!---->
    <linearGradient
       inkscape:collect="always"
       xlink:href="#d30a37b5-4f65-4662-8c06-fcdaf3d1dac6"
       id="linearGradient4535"
       gradientTransform="scale(1.2638114,0.79125728)"
       x1="0.078334473"
       y1="23.577665"
       x2="79.161339"
       y2="23.577665"
       gradientUnits="userSpaceOnUse" />
    <linearGradient
       inkscape:collect="always"
       xlink:href="#d30a37b5-4f65-4662-8c06-fcdaf3d1dac6"
       id="linearGradient4537"
       gradientTransform="scale(1.2638114,0.79125728)"
       x1="0.078334473"
       y1="23.577665"
       x2="79.161339"
       y2="23.577665"
       gradientUnits="userSpaceOnUse" />
  </defs>
  <defs
     data-v-fde0c5aa=""
     id="defs6">
    <!---->
  </defs>
  <defs
     data-v-fde0c5aa=""
     id="defs16">
    <linearGradient
       data-v-fde0c5aa=""
       gradientTransform="rotate(25)"
       id="d30a37b5-4f65-4662-8c06-fcdaf3d1dac6"
       x1="0"
       y1="0"
       x2="1"
       y2="0">
      <stop
         data-v-fde0c5aa=""
         offset="0%"
         stop-color="#288B58"
         stop-opacity="1"
         id="stop11" />
      <stop
         data-v-fde0c5aa=""
         offset="100%"
         stop-color="#1522F1"
         stop-opacity="1"
         id="stop13" />
    </linearGradient>
  </defs>
  <!---->
  <g
     data-v-fde0c5aa=""
     id="4e04ea76-fb69-4cc6-a0fe-6735cfd0d7b1"
     transform="matrix(2.8269775,0,0,2.8269775,75.830725,10.573712)"
     style="fill:#000000">
    <path
       d="M 4.4,8.95 C 4.17,9.02 3.96,9.03 3.82,9.03 3.16,9.03 3.16,8.58 3.16,7.95 V 4.68 H 4.51 V 3.22 H 3.16 V 0.99 L 1.32,1.6 V 3.22 H 0.28 v 1.46 h 1.04 v 3.69 c 0,1.43 0.47,2.27 2,2.27 0.26,0 0.92,-0.07 1.2,-0.21 z M 7.77,10.5 V 6.54 c 0,-1.3 0.66,-1.98 1.51,-1.98 0.9,0 1.23,0.56 1.23,1.53 v 4.41 h 1.85 V 6.03 C 12.36,4.3 11.77,3.01 9.76,3.01 8.85,3.01 8.23,3.36 7.77,4.16 V 0.42 H 5.92 V 10.5 Z m 8.06,0 V 7.06 c 0,-1.42 0.61,-2.31 1.81,-2.31 0.43,0 0.73,0.12 1.01,0.28 L 18.98,3.39 C 18.65,3.12 18.26,3.01 17.7,3.01 16.69,3.01 16.17,3.5 15.71,4.48 V 3.22 H 13.99 V 10.5 Z M 26.31,7.38 c 0,-0.04 0.01,-0.45 0.01,-0.77 0,-2.34 -1.5,-3.6 -3.44,-3.6 -1.91,0 -3.53,1.25 -3.53,3.85 0,2.6 1.61,3.85 3.53,3.85 1.69,0 2.81,-0.76 3.31,-2.25 L 24.47,8.09 C 24.28,8.75 23.72,9.17 22.99,9.17 22.02,9.17 21.27,8.61 21.2,7.38 Z M 22.83,4.55 c 0.93,0 1.54,0.62 1.6,1.53 h -3.21 c 0.13,-1.01 0.87,-1.53 1.61,-1.53 z m 8.95,5.15 c 0.04,0.27 0.11,0.62 0.32,0.8 h 1.86 C 33.71,10.23 33.54,9.76 33.54,9.02 v -3 c 0,-2.13 -1.16,-3.01 -3.03,-3.01 -1.38,0 -2.78,0.52 -3.14,2.2 l 1.61,0.49 c 0.17,-0.66 0.57,-1.19 1.41,-1.19 0.91,0 1.31,0.53 1.31,1.22 v 0.19 c -0.37,0.17 -0.93,0.27 -1.7,0.35 -1.72,0.2 -2.85,0.8 -2.85,2.37 0,1.38 1.12,2.07 2.45,2.07 0.86,0 1.55,-0.25 2.18,-1.01 z M 31.7,8.3 C 31.42,8.79 30.73,9.31 29.99,9.31 29.37,9.31 29.02,9.02 29.02,8.51 28.99,7.81 29.57,7.6 30.24,7.48 30.95,7.34 31.43,7.21 31.7,7.1 Z M 39.77,0.42 V 3.89 C 39.35,3.26 38.68,3.01 38.01,3.01 c -1.82,0 -3.18,1.39 -3.18,3.85 0,2.46 1.32,3.85 3.14,3.85 0.87,0 1.52,-0.41 1.94,-1.11 v 0.9 h 1.71 V 0.42 Z m 0.16,6.44 c 0,1.55 -0.77,2.31 -1.64,2.31 -0.91,0 -1.61,-0.76 -1.61,-2.31 0,-1.55 0.66,-2.31 1.62,-2.31 0.96,0 1.63,0.76 1.63,2.31 z m 2.9,1.54 c 0.12,1.37 1.24,2.31 3.02,2.31 1.65,0 3,-0.73 3,-2.34 0,-1.45 -1.05,-1.96 -1.88,-2.15 L 45.21,5.81 c -0.38,-0.08 -0.63,-0.29 -0.63,-0.6 0,-0.52 0.49,-0.76 1.2,-0.76 0.64,0 1.16,0.27 1.27,0.93 l 1.6,-0.27 c -0.07,-1.15 -1.08,-2.1 -2.81,-2.1 -1.5,0 -2.86,0.64 -2.86,2.27 0,1.2 0.83,1.82 1.78,2.04 l 1.75,0.41 c 0.42,0.11 0.68,0.31 0.68,0.71 0,0.66 -0.68,0.83 -1.3,0.83 -0.91,0 -1.38,-0.46 -1.47,-1.14 z"
       id="path8"
       inkscape:connector-curvature="0" />
  </g>
  <g
     data-v-fde0c5aa=""
     id="97ac1be9-a316-4724-8c91-71b73dfced58"
     transform="matrix(0.65526045,-0.2384953,0.2384953,0.65526045,-9.9460631,5.5217817)"
     style="fill:url(#linearGradient4537);stroke:none">
    <path
       d="m 100.045,45.407 c 0,-7.259 -3.468,-14.047 -9.766,-19.112 -6.124,-4.926 -14.232,-7.639 -22.83,-7.639 -6.241,0 -12.223,1.431 -17.377,4.099 -5.154,-2.668 -11.136,-4.099 -17.377,-4.099 -8.598,0 -16.706,2.713 -22.83,7.639 -6.297,5.066 -9.766,11.853 -9.766,19.112 0,6.433 2.761,12.556 7.809,17.393 L 5.238,81.231 20.971,70.382 c 3.73,1.18 7.667,1.777 11.725,1.777 6.135,0 12.232,-1.374 17.377,-3.85 5.145,2.476 11.242,3.85 17.377,3.85 4.058,0 7.995,-0.597 11.725,-1.777 L 94.908,81.231 92.236,62.8 c 5.048,-4.836 7.809,-10.96 7.809,-17.393 z m -78.576,19.385 -1.318,-0.473 -7.72,5.323 1.301,-8.97 -1.13,-0.977 C 8.059,55.767 5.557,50.693 5.557,45.407 c 0,-11.742 12.175,-21.295 27.139,-21.295 4.28,0 8.331,0.783 11.936,2.174 l -0.012,0.009 c -6.298,5.066 -9.766,11.853 -9.766,19.112 0,7.85 3.282,14.521 9.513,19.386 -3.665,1.267 -7.675,1.91 -11.671,1.91 -3.919,0 -7.696,-0.643 -11.227,-1.911 z m 35.154,-8.767 h -13.1 c -0.25,-0.365 -0.487,-0.74 -0.711,-1.123 h 14.522 c -0.224,0.383 -0.461,0.758 -0.711,1.123 z m -5.569,5.457 c -0.321,0.219 -0.648,0.43 -0.981,0.636 -0.333,-0.205 -0.66,-0.417 -0.981,-0.636 z M 59.428,49.445 H 40.718 A 18.287,18.287 0 0 1 40.52,48.321 h 19.106 a 19.94,19.94 0 0 1 -0.198,1.124 z m -18.923,-6.58 c 0.057,-0.378 0.127,-0.752 0.209,-1.123 h 18.717 c 0.082,0.371 0.152,0.746 0.21,1.123 z m 2.425,-6.58 c 0.231,-0.381 0.476,-0.755 0.735,-1.123 h 12.816 c 0.259,0.368 0.504,0.743 0.735,1.123 z m 6.207,-6.58 c 0.305,-0.22 0.618,-0.433 0.936,-0.642 0.318,0.209 0.63,0.422 0.936,0.642 z m 38.577,39.937 -7.72,-5.323 -1.318,0.473 c -3.53,1.268 -7.308,1.91 -11.227,1.91 -3.996,0 -8.006,-0.642 -11.671,-1.91 6.231,-4.865 9.513,-11.536 9.513,-19.386 0,-7.259 -3.468,-14.047 -9.766,-19.112 l -0.012,-0.009 c 3.604,-1.391 7.655,-2.174 11.936,-2.174 14.964,0 27.139,9.553 27.139,21.295 0,5.286 -2.502,10.36 -7.045,14.288 l -1.13,0.977 z"
       id="path18"
       style="fill:url(#linearGradient4535)"
       inkscape:connector-curvature="0" />
  </g>
</svg>
