<svg xmlns="http://www.w3.org/2000/svg" viewBox="0 0 610.99 493.35"><title>Harvard Berkman Klein Center Logo</title><path d="M5.31,428.77v5.13H16.82v4.83H5.31v9.34H0V423.94H18.37v4.83Z" fill="#656668"></path><path d="M36.52,448.48c-7.45,0-12.79-5.55-12.79-12.41V436a12.48,12.48,0,0,1,12.85-12.48c7.45,0,12.79,5.55,12.79,12.41V436A12.47,12.47,0,0,1,36.52,448.48ZM43.82,436a7.34,7.34,0,0,0-7.3-7.59,7.22,7.22,0,0,0-7.24,7.52V436a7.33,7.33,0,0,0,7.3,7.58,7.22,7.22,0,0,0,7.24-7.52Z" fill="#656668"></path><path d="M71.6,448.07l-5.17-7.72H62.26v7.72H57V423.94H68c5.68,0,9.1,3,9.1,8V432a7.5,7.5,0,0,1-5.17,7.48l5.89,8.62Zm.1-15.89c0-2.27-1.59-3.44-4.17-3.44H62.26v6.92h5.37c2.59,0,4.07-1.38,4.07-3.41Z" fill="#656668"></path><path d="M97.11,448.07V423.94h5.3v24.13Z" fill="#656668"></path><path d="M128.26,448.07l-11.68-15.34v15.34h-5.24V423.94h4.9l11.3,14.86V423.94h5.24v24.13Z" fill="#656668"></path><path d="M152,428.84v19.23h-5.31V428.84h-7.34v-4.9h20v4.9Z" fill="#656668"></path><path d="M165.91,448.07V423.94H184.1v4.72H171.18v4.9h11.37v4.72H171.18v5.07h13.1v4.72Z" fill="#656668"></path><path d="M206.85,448.07l-5.17-7.72h-4.17v7.72H192.2V423.94h11c5.69,0,9.1,3,9.1,8V432a7.49,7.49,0,0,1-5.17,7.48l5.89,8.62Zm.1-15.89c0-2.27-1.58-3.44-4.17-3.44h-5.27v6.92h5.38c2.58,0,4.06-1.38,4.06-3.41Z" fill="#656668"></path><path d="M237.06,448.07l-11.68-15.34v15.34h-5.24V423.94H225l11.31,14.86V423.94h5.23v24.13Z" fill="#656668"></path><path d="M250.43,448.07V423.94h18.2v4.72H255.7v4.9h11.38v4.72H255.7v5.07h13.1v4.72Z" fill="#656668"></path><path d="M287.37,428.84v19.23h-5.3V428.84h-7.34v-4.9h20v4.9Z" fill="#656668"></path><path d="M330,448.55l-2.8-2.83a10.85,10.85,0,0,1-7.06,2.69c-4.62,0-8.1-2.69-8.1-7,0-3.11,1.65-5.28,4.69-6.65a8.12,8.12,0,0,1-1.69-4.86c0-3.35,2.65-6.38,7.3-6.38,4.11,0,6.79,2.65,6.79,6.1,0,3.27-2.06,5.17-5.06,6.34l3.2,3.21a46.63,46.63,0,0,0,2.34-4.14l3.9,2.14a45.19,45.19,0,0,1-3.17,5.1l3.55,3.55ZM319.64,438a3.61,3.61,0,0,0-2.24,3.21c0,1.72,1.41,2.86,3.38,2.86a5.73,5.73,0,0,0,3.48-1.38Zm2.62-10.33a2.28,2.28,0,0,0-2.34,2.48,4.31,4.31,0,0,0,1.41,3c2.1-.79,3.21-1.69,3.21-3.24A2.12,2.12,0,0,0,322.26,427.67Z" fill="#656668"></path><path d="M361.35,448.41a15.33,15.33,0,0,1-10.24-3.86l3.14-3.75a11.06,11.06,0,0,0,7.2,2.93c2.17,0,3.48-.87,3.48-2.28v-.07c0-1.34-.82-2-4.86-3.07-4.86-1.24-8-2.58-8-7.37v-.07c0-4.38,3.51-7.27,8.44-7.27a13.91,13.91,0,0,1,9,3.07l-2.76,4a11.25,11.25,0,0,0-6.27-2.38c-2,0-3.1.93-3.1,2.1v.07c0,1.58,1,2.1,5.2,3.17,4.9,1.27,7.65,3,7.65,7.24v.06C370.2,445.72,366.55,448.41,361.35,448.41Z" fill="#656668"></path><path d="M389.09,448.48a12.36,12.36,0,0,1-12.78-12.41V436a12.48,12.48,0,0,1,12.85-12.48c7.45,0,12.79,5.55,12.79,12.41V436A12.48,12.48,0,0,1,389.09,448.48ZM396.4,436a7.33,7.33,0,0,0-7.31-7.59,7.21,7.21,0,0,0-7.23,7.52V436a7.33,7.33,0,0,0,7.3,7.58,7.22,7.22,0,0,0,7.24-7.52Z" fill="#656668"></path><path d="M420.69,448.48a12.18,12.18,0,0,1-12.37-12.41V436a12.26,12.26,0,0,1,12.58-12.48,12.48,12.48,0,0,1,9.51,3.72l-3.38,3.9a8.91,8.91,0,0,0-6.17-2.73c-4.06,0-7,3.38-7,7.52V436c0,4.13,2.86,7.58,7,7.58,2.76,0,4.45-1.11,6.34-2.83l3.38,3.41A12.31,12.31,0,0,1,420.69,448.48Z" fill="#656668"></path><path d="M437.53,448.07V423.94h5.31v24.13Z" fill="#656668"></path><path d="M451.77,448.07V423.94H470v4.72H457v4.9h11.37v4.72H457v5.07h13.09v4.72Z" fill="#656668"></path><path d="M488.72,428.84v19.23h-5.31V428.84h-7.34v-4.9h20v4.9Z" fill="#656668"></path><path d="M515.91,438.45v9.62H510.6v-9.51l-9.27-14.62h6.21l5.75,9.69,5.86-9.69h6Z" fill="#656668"></path><path d="M20,493l-2.2-5.41H7.62L5.41,493H0l10.34-24.3h4.89L25.57,493Zm-7.3-17.92-3.21,7.82h6.41Z" fill="#656668"></path><path d="M40.19,473.74V493h-5.3V473.74H27.54v-4.9h20v4.9Z" fill="#656668"></path><path d="M81.69,493v-9.69H71.9V493H66.6V468.84h5.3v9.55h9.79v-9.55H87V493Z" fill="#656668"></path><path d="M113.41,493l-2.2-5.41H101L98.8,493H93.39l10.34-24.3h4.89L119,493Zm-7.3-17.92-3.21,7.82h6.41Z" fill="#656668"></path><path d="M140,493l-5.17-7.72h-4.17V493h-5.31V468.84h11c5.69,0,9.1,3,9.1,8v.06a7.5,7.5,0,0,1-5.17,7.48L146.2,493Zm.1-15.89c0-2.28-1.59-3.44-4.17-3.44h-5.27v6.92H136c2.59,0,4.07-1.38,4.07-3.41Z" fill="#656668"></path><path d="M164.73,493.14H160l-9.75-24.3h5.86l6.31,17,6.3-17h5.72Z" fill="#656668"></path><path d="M196.58,493l-2.21-5.41h-10.2L182,493h-5.41l10.34-24.3h4.89L202.13,493Zm-7.31-17.92-3.2,7.82h6.41Z" fill="#656668"></path><path d="M223.18,493,218,485.25h-4.17V493h-5.31V468.84h11c5.68,0,9.1,3,9.1,8v.06a7.5,7.5,0,0,1-5.18,7.48l5.9,8.62Zm.1-15.89c0-2.28-1.58-3.44-4.17-3.44h-5.27v6.92h5.37c2.59,0,4.07-1.38,4.07-3.41Z" fill="#656668"></path><path d="M245.88,493h-9.41V468.84h9.41c7.58,0,12.82,5.21,12.82,12v.07C258.7,487.7,253.46,493,245.88,493Zm7.27-12.06a6.92,6.92,0,0,0-7.27-7.27h-4.11v14.54h4.11a6.88,6.88,0,0,0,7.27-7.21Z" fill="#656668"></path><path d="M288.48,493.35c-6.48,0-10.44-3.62-10.44-10.72V468.84h5.3v13.65c0,3.93,2,6,5.21,6s5.2-2,5.2-5.79V468.84h5.31v13.62C299.06,489.76,295,493.35,288.48,493.35Z" fill="#656668"></path><path d="M324.55,493l-11.68-15.34V493h-5.24V468.84h4.9l11.3,14.86V468.84h5.24V493Z" fill="#656668"></path><path d="M338,493V468.84h5.31V493Z" fill="#656668"></path><path d="M364.26,493.14h-4.69l-9.75-24.3h5.86l6.31,17,6.3-17H374Z" fill="#656668"></path><path d="M380.42,493V468.84h18.2v4.72H385.69v4.9h11.38v4.72H385.69v5.07h13.1V493Z" fill="#656668"></path><path d="M421.37,493l-5.18-7.72H412V493h-5.3V468.84h11c5.68,0,9.09,3,9.09,8v.06a7.49,7.49,0,0,1-5.17,7.48l5.9,8.62Zm.1-15.89c0-2.28-1.59-3.44-4.17-3.44H412v6.92h5.38c2.59,0,4.07-1.38,4.07-3.41Z" fill="#656668"></path><path d="M443,493.31a15.31,15.31,0,0,1-10.23-3.86l3.13-3.76a11.06,11.06,0,0,0,7.21,2.93c2.17,0,3.48-.86,3.48-2.27v-.07c0-1.34-.83-2-4.86-3.07-4.86-1.24-8-2.58-8-7.37v-.07c0-4.38,3.52-7.27,8.45-7.27a14,14,0,0,1,9,3.07l-2.76,4a11.33,11.33,0,0,0-6.27-2.37c-2,0-3.1.93-3.1,2.1v.07c0,1.58,1,2.1,5.2,3.17,4.89,1.27,7.65,3,7.65,7.24v.06C451.85,490.62,448.2,493.31,443,493.31Z" fill="#656668"></path><path d="M459.54,493V468.84h5.31V493Z" fill="#656668"></path><path d="M484.14,473.74V493h-5.31V473.74H471.5v-4.9h20v4.9Z" fill="#656668"></path><path d="M511.34,483.35V493H506v-9.51l-9.27-14.62H503l5.76,9.69,5.86-9.69h6Z" fill="#656668"></path><path d="M0,263.52H26.21c6.42,0,10.95,1.61,13.95,4.61a11.2,11.2,0,0,1,3.28,8.24v.15c0,5.91-3.35,9.42-7.88,11.39,6.2,2,10.14,5.55,10.14,12.49v.14c0,8.76-7.15,14.09-19.34,14.09H0Zm22.71,20.37c4.3,0,6.71-1.46,6.71-4.45v-.14c0-2.78-2.19-4.39-6.42-4.39H13.8v9Zm2,19.35c4.31,0,6.79-1.68,6.79-4.67v-.15c0-2.77-2.19-4.6-6.94-4.6H13.8v9.42Z"></path><path d="M58.28,263.52H99.39v12.05H72.3v7.74H96.83v11.17H72.3v8.11H99.75v12H58.28Z"></path><path d="M113.49,263.52h24.17c7.81,0,13.21,2.05,16.64,5.55,3,2.93,4.53,6.87,4.53,11.9v.15c0,7.81-4.16,13-10.51,15.7l12.19,17.81H144.16l-10.3-15.48h-6.2v15.48H113.49ZM137,288.06c4.82,0,7.59-2.34,7.59-6.06v-.15c0-4-2.92-6.06-7.66-6.06h-9.27v12.27Z"></path><path d="M171.79,263.52H186v20.74l17.6-20.74h16.79L201,285.5l20,29.13H204l-12.84-19L186,301.42v13.21H171.79Z"></path><path d="M230.65,263.52h15l12.19,19.79L270,263.52h15v51.11H270.88V285.28l-13.08,20h-.29l-13-19.86v29.2H230.65Z"></path><path d="M316.8,263.16h13.65l21.76,51.47H337l-3.73-9.12H313.59l-3.65,9.12H295Zm12.41,31.32L323.52,280l-5.77,14.53Z"></path><path d="M362.29,263.52h13.22l21,27v-27h14v51.11H398.14l-21.83-28v28h-14Z"></path><path d="M0,341.35H14.16v20.74l17.6-20.74H48.55l-19.34,22,20,29.13h-17l-12.85-19-5.19,5.76v13.22H0Z"></path><path d="M58.86,341.35H73v38.7H97.78v12.41H58.86Z"></path><path d="M108.36,341.35h41.1v12H122.38v7.74h24.53v11.17H122.38v8.1h27.45v12H108.36Z"></path><path d="M163.77,341.35H178v51.11H163.77Z"></path><path d="M193.18,341.35H206.4l21,27v-27h14v51.11H229l-21.83-28v28h-14Z"></path><path d="M278.89,367.05v-.14c0-14.9,11.47-26.58,26.94-26.58,10.44,0,17.16,4.38,21.69,10.66l-10.66,8.25c-2.92-3.65-6.28-6-11.17-6-7.16,0-12.19,6.06-12.19,13.51v.15c0,7.66,5,13.65,12.19,13.65,5.33,0,8.47-2.49,11.53-6.21l10.66,7.6c-4.81,6.64-11.31,11.53-22.63,11.53A26,26,0,0,1,278.89,367.05Z"></path><path d="M339.12,341.35h41.1v12H353.13v7.74h24.54v11.17H353.13v8.1h27.46v12H339.12Z"></path><path d="M394.33,341.35h13.21l21,27v-27h14v51.11H430.18l-21.84-28v28h-14Z"></path><path d="M468.61,353.76H453.28V341.35h44.83v12.41H482.77v38.7H468.61Z"></path><path d="M508.76,341.35h41.11v12H522.78v7.74h24.53v11.17H522.78v8.1h27.45v12H508.76Z"></path><path d="M564,341.35h24.17c7.81,0,13.21,2,16.65,5.55,3,2.92,4.52,6.86,4.52,11.9V359c0,7.81-4.16,13-10.51,15.69L611,392.46H594.64L584.35,377h-6.21v15.48H564Zm23.51,24.53c4.82,0,7.6-2.33,7.6-6.06v-.14c0-4-2.92-6.06-7.67-6.06h-9.27v12.26Z"></path><rect x="125.1" width="10" height="171.1" fill="#a51c30"></rect><rect x="286.93" width="10" height="171.1" fill="#a51c30"></rect><polygon points="186.8 171.29 179.73 164.22 227.51 116.44 179.59 68.52 186.66 61.45 241.65 116.44 186.8 171.29" fill="#a51c30"></polygon><polygon points="397.05 171.29 404.12 164.22 356.35 116.44 404.27 68.52 397.19 61.45 342.21 116.44 397.05 171.29" fill="#a51c30"></polygon><polygon points="0.94 149.47 22.48 171.01 76.75 116.75 21.54 61.55 0 83.09 33.66 116.75 0.94 149.47" fill="#a51c30"></polygon></svg>